:SAMPLES-PER-SECOND 30
:FULLY-SPECIFIED
:DEGREES
107
root  -0.0868573 33.8639 -0.248121 5.78528 -48.0492 -11.814
RightUpLeg  11.9071 -10.1081 -31.5219
RightLeg  17.5732 -6.53912 -2.74165
RightFoot  9.10626 -4.63734 25.4411
RightToes  -1.16417e-010 0 -3.6325e-017
Spine  25.9022 9.16589 23.0117
Spine1  -8.66528 17.4325 -34.2343
HEad  -28.5413 26.8289 -5.73483
LeftShoulder1  2.87221 -8.46973 -17.3569
LeftArm  23.6742 16.8599 -53.4093
LeftForeArm  64.862 -77.3983 -46.7027
LeftHand  -1.8492 15.9814 -18.5076
RightShoulder  0.183885 -5.51575 -19.6921
RightArm  74.5092 83.3379 134.11
RightForeArm  37.1213 23.2478 5.95593
RightHand  0.00156216 -5.13339 21.6639
LeftUpLeg  -35.3887 2.91569 8.20223
LeftLeg  64.6728 2.93744 7.49066
LeftFoot  -25.9293 -0.243245 -3.14241
LeftToes  6.91183e-011 3.39355e-011 2.1261e-011
108
root  0.393532 34.1009 -0.0840526 5.34128 -52.899 -11.9655
RightUpLeg  2.93029 -13.7621 -28.4101
RightLeg  32.8085 -8.40401 -5.8465
RightFoot  0.882631 -2.0013 19.3808
RightToes  -1.16417e-010 0 -3.6325e-017
Spine  24.8954 7.21339 19.8382
Spine1  -8.72211 14.1916 -29.9982
HEad  -24.1962 23.8396 -2.54131
LeftShoulder1  2.78711 -8.24839 -17.0475
LeftArm  19.3374 16.2241 -54.4651
LeftForeArm  67.6183 -78.2269 -53.1005
LeftHand  -2.70717 20.4587 -18.9918
RightShoulder  0.0602573 -4.28368 -17.0243
RightArm  52.9187 73.5726 109.222
RightForeArm  41.3484 49.0282 9.92914
RightHand  -0.0981909 -6.02747 8.87084
LeftUpLeg  -33.2929 5.30743 7.31188
LeftLeg  63.2912 3.60892 8.41009
LeftFoot  -24.4248 -0.370841 -4.49287
LeftToes  6.91183e-011 3.39355e-011 2.1261e-011
109
root  0.834168 34.3662 0.155096 3.12845 -59.352 -10.0972
RightUpLeg  -7.92027 -17.5575 -24.0248
RightLeg  51.2472 -2.46329 -3.09491
RightFoot  -8.92851 -0.56749 24.1051
RightToes  -1.16417e-010 0 -3.6325e-017
Spine  24.6929 5.76672 15.8152
Spine1  -9.26559 11.345 -25.9602
HEad  -18.4787 17.8713 -0.178657
LeftShoulder1  2.37329 -7.05059 -15.7024
LeftArm  17.3389 15.0909 -54.2064
LeftForeArm  102.278 -80.5406 -85.8634
LeftHand  -2.51226 21.0824 -16.8137
RightShoulder  -0.0261242 -2.53668 -13.1786
RightArm  25.0879 65.6096 77.6451
RightForeArm  58.8192 71.2242 27.3764
RightHand  -0.0741052 -5.4062 -7.75015
LeftUpLeg  -30.5703 9.25789 5.37834
LeftLeg  61.4649 5.78626 12.0297
LeftFoot  -23.5591 -0.272272 -3.79504
LeftToes  6.91183e-011 3.39355e-011 2.1261e-011
110
root  1.18917 34.7038 0.546644 -1.60898 -66.4051 -5.13828
RightUpLeg  -17.7398 -21.4025 -18.1037
RightLeg  65.2091 3.21417 6.45248
RightFoot  -12.1858 0.121516 28.0889
RightToes  -1.16417e-010 0 -3.6325e-017
Spine  24.7684 5.31462 12.1715
Spine1  -10.2908 9.64479 -22.3337
HEad  -13.3601 9.44665 -0.350153
LeftShoulder1  1.84637 -5.22692 -14.2453
LeftArm  18.3054 12.0372 -51.1765
LeftForeArm  153.072 -78.3711 -129.741
LeftHand  -1.44631 18.3774 -11.348
RightShoulder  0.0110035 -1.7053 -8.95518
RightArm  26.1068 44.9613 71.5186
RightForeArm  121.6 81.3531 91.9081
RightHand  -0.655646 -2.22941 -24.0318
LeftUpLeg  -28.4018 16.3594 3.12045
LeftLeg  60.04 5.47233 10.8112
LeftFoot  -21.5072 -0.255916 -4.37455
LeftToes  6.91183e-011 3.39355e-011 2.1261e-011
111
root  1.43427 35.1764 0.999068 -11.8573 -72.0353 5.63284
RightUpLeg  -23.2821 -25.2457 -12.2276
RightLeg  69.2479 2.78859 7.38373
RightFoot  -10.8482 -0.196652 24.1885
RightToes  -1.16417e-010 0 -3.6325e-017
Spine  24.6851 4.81548 9.13266
Spine1  -11.358 8.14962 -19.0068
HEad  -10.0433 1.41467 -2.50251
LeftShoulder1  1.39225 -3.52278 -12.7784
LeftArm  18.48 6.88315 -43.9958
LeftForeArm  178.639 -74.4183 -147.309
LeftHand  -0.204359 14.1608 -0.930914
RightShoulder  0.0903577 -1.56951 -4.39086
RightArm  23.9847 25.2449 57.4435
RightForeArm  172.257 75.2122 144.912
RightHand  -1.59513 -0.30397 -36.1743
LeftUpLeg  -26.6977 24.3993 1.83571
LeftLeg  59.5557 -0.778243 -0.904871
LeftFoot  -15.8181 -0.288238 -12.1311
LeftToes  6.91183e-011 3.39355e-011 2.1261e-011
112
root  1.48071 35.4916 1.35297 -29.4459 -74.7648 23.5409
RightUpLeg  -23.3847 -26.6864 -10.1004
RightLeg  65.7652 -0.1907 -0.932484
RightFoot  -15.551 0.390394 14.893
RightToes  -1.16417e-010 0 -3.6325e-017
Spine  24.4553 3.30237 6.14414
Spine1  -11.9842 5.77351 -16.1708
HEad  -8.93284 -2.60095 -4.68955
LeftShoulder1  1.06822 -2.46974 -10.6399
LeftArm  14.4076 2.50474 -32.3092
LeftForeArm  -171.725 -73.7994 -150.186
LeftHand  0.558079 10.618 12.2343
RightShoulder  0.196144 -1.23309 0.155934
RightArm  26.5202 4.88729 48.2181
RightForeArm  -177.972 69.9318 155.195
RightHand  -2.21054 0.597316 -41.4868
LeftUpLeg  -24.3716 27.2549 3.36958
LeftLeg  60.9969 -7.78406 -14.2682
LeftFoot  -10.5443 0.155577 -24.2716
LeftToes  6.91183e-011 3.39355e-011 2.1261e-011
113
root  1.33463 35.4123 1.64643 -50.04 -75.2788 44.6583
RightUpLeg  -22.3406 -23.6015 -11.8029
RightLeg  62.3318 -4.18754 -9.27946
RightFoot  -23.0161 0.683731 7.80873
RightToes  -1.16417e-010 0 -3.6325e-017
Spine  23.5914 1.12546 3.16696
Spine1  -11.9592 2.91233 -13.9871
HEad  -10.0112 -1.27196 -6.60044
LeftShoulder1  0.760761 -1.52669 -7.50705
LeftArm  7.42321 1.6841 -17.8414
LeftForeArm  168.099 -78.9162 -129.115
LeftHand  0.986681 11.1937 19.6972
RightShoulder  0.343978 -0.686579 4.32528
RightArm  29.8173 -13.5618 41.7603
RightForeArm  -173.338 67.9338 157.916
RightHand  -2.63275 1.52373 -42.5409
LeftUpLeg  -20.6824 22.9208 8.08608
LeftLeg  60.3748 -9.12826 -16.3868
LeftFoot  -13.1109 -0.3308 -28.5778
LeftToes  6.91183e-011 3.39355e-011 2.1261e-011
114
root  1.10938 35.2636 1.91514 -72.8723 -75.7982 68.6307
RightUpLeg  -23.6968 -17.9097 -13.6211
RightLeg  61.7988 -5.53875 -11.6172
RightFoot  -25.9577 0.684417 6.66485
RightToes  -1.16417e-010 0 -3.6325e-017
Spine  21.5297 -0.517771 1.48316
Spine1  -11.3575 0.952893 -12.698
HEad  -12.3271 4.12901 -9.48909
LeftShoulder1  0.419534 0.0349425 -4.07703
LeftArm  3.36647 3.25625 -5.44425
LeftForeArm  76.2907 -75.9508 -41.3986
LeftHand  1.08779 12.5578 17.8084
RightShoulder  0.495804 -0.282534 7.93782
RightArm  34.2834 -28.356 36.2004
RightForeArm  -170.043 67.6817 158.507
RightHand  -2.8425 1.96735 -43.0567
LeftUpLeg  -14.2147 15.6383 14.9129
LeftLeg  51.1856 -3.91511 -5.3248
LeftFoot  -11.6403 -0.1115 -23.929
LeftToes  6.91183e-011 3.39355e-011 2.1261e-011
115
root  0.831457 35.1308 2.11144 -100.66 -75.7229 97.8875
RightUpLeg  -26.9003 -13.8585 -13.4666
RightLeg  62.5762 -4.46538 -9.82902
RightFoot  -26.4665 0.529782 5.35477
RightToes  -1.16417e-010 0 -3.6325e-017
Spine  18.7735 -1.28185 1.55076
Spine1  -10.6964 0.141048 -11.7613
HEad  -14.6254 11.7171 -13.3116
LeftShoulder1  0.154137 1.91326 -1.52741
LeftArm  7.49597 3.93235 1.54798
LeftForeArm  37.9469 -50.1095 -9.38952
LeftHand  0.624401 10.9685 13.4676
RightShoulder  0.633751 0.0647206 10.5879
RightArm  40.0194 -39.619 30.3773
RightForeArm  -166.855 68.4218 158.059
RightHand  -3.38439 2.98061 -44.8367
LeftUpLeg  -4.55413 7.71183 21.1234
LeftLeg  34.2363 2.34548 2.18101
LeftFoot  3.93179 2.541 -18.5464
LeftToes  6.91183e-011 3.39355e-011 2.1261e-011
116
root  0.531324 34.8445 2.31854 -122.388 -73.2986 121.134
RightUpLeg  -30.2272 -12.3193 -12.7828
RightLeg  63.7431 -3.58934 -8.47919
RightFoot  -27.8871 0.21812 2.81286
RightToes  -1.16417e-010 0 -3.6325e-017
Spine  16.6552 -1.96651 1.44882
Spine1  -10.8122 -0.752465 -9.1517
HEad  -16.34 19.7732 -16.4937
LeftShoulder1  0.0123372 3.34783 -0.561474
LeftArm  11.586 3.50769 5.62374
LeftForeArm  25.8766 -20.8727 -5.45891
LeftHand  0.348444 9.8633 10.1828
RightShoulder  0.745133 0.424036 11.9423
RightArm  46.1838 -47.8166 24.7131
RightForeArm  -163.35 69.1072 157.674
RightHand  -3.96679 4.2532 -45.6867
LeftUpLeg  5.4328 2.59808 24.2501
LeftLeg  16.2455 -4.00278 0.621287
LeftFoot  18.1781 5.76186 -21.9094
LeftToes  6.91183e-011 3.39355e-011 2.1261e-011
117
root  0.366444 34.5101 2.52148 -130.371 -70.3378 130.651
RightUpLeg  -33.2173 -11.6158 -13.1456
RightLeg  65.0444 -2.88667 -7.38522
RightFoot  -29.8524 0.10941 1.89847
RightToes  -1.16417e-010 0 -3.6325e-017
Spine  15.9039 -2.88581 -0.645783
Spine1  -11.9145 -2.2756 -4.12768
HEad  -18.2083 26.0772 -18.4482
LeftShoulder1  -0.0629943 4.21925 -0.387102
LeftArm  -7.43666 4.17601 10.2103
LeftForeArm  37.4313 2.01072 -11.7688
LeftHand  0.21427 11.5404 5.13156
RightShoulder  0.785019 0.560805 12.3138
RightArm  50.6553 -53.0652 21.0182
RightForeArm  -164.686 69.7712 156.73
RightHand  -3.4227 3.9738 -41.0605
LeftUpLeg  11.1149 10.9515 25.7762
LeftLeg  5.40453 -22.2472 2.16339
LeftFoot  21.3944 9.5298 -32.3002
LeftToes  6.91183e-011 3.39355e-011 2.1261e-011
118
root  0.430673 34.3001 2.56635 -131.925 -68.5126 133.71
RightUpLeg  -36.0233 -10.372 -13.5373
RightLeg  66.2016 -2.36929 -6.57079
RightFoot  -30.3593 0.243259 2.68975
RightToes  -1.16417e-010 0 -3.6325e-017
Spine  15.9372 -3.32492 -3.73646
Spine1  -12.8162 -3.43851 0.414346
HEad  -21.4037 28.5797 -20.1676
LeftShoulder1  -0.114165 4.98126 0.740425
LeftArm  -7.38755 6.4843 11.514
LeftForeArm  33.9579 8.09942 -10.1905
LeftHand  0.00601345 12.9225 1.00076
RightShoulder  0.765956 0.410097 12.6096
RightArm  47.0821 -56.7763 23.107
RightForeArm  -176.133 71.0263 153.747
RightHand  -1.7043 1.3409 -28.1267
LeftUpLeg  11.4922 14.1864 26.2569
LeftLeg  4.72485 -21.1041 1.46096
LeftFoot  20.8446 11.3746 -38.5904
LeftToes  6.91183e-011 3.39355e-011 2.1261e-011
119
root  0.670821 34.1834 2.52085 -132.74 -68.8794 135.576
RightUpLeg  -37.8355 -8.60396 -12.0685
RightLeg  66.6905 -3.33777 -9.12959
RightFoot  -29.6323 0.286332 3.02522
RightToes  -1.16417e-010 0 -3.6325e-017
Spine  16.0393 -3.162 -4.3439
Spine1  -12.2236 -3.55007 2.37555
HEad  -24.9667 27.1242 -21.7979
LeftShoulder1  -0.127809 5.56907 2.6923
LeftArm  -5.66816 7.45188 8.86113
LeftForeArm  32.8776 7.38111 -10.8441
LeftHand  -0.0302115 11.9762 0.62232
RightShoulder  0.787748 0.306031 13.8304
RightArm  30.1982 -59.4449 34.1485
RightForeArm  170.005 70.8518 152.153
RightHand  -0.174642 -6.17825 -6.81521
LeftUpLeg  9.16943 12.3967 25.76
LeftLeg  8.25224 -8.91859 1.28883
LeftFoot  20.1915 10.8634 -37.6987
LeftToes  6.91183e-011 3.39355e-011 2.1261e-011
120
root  0.987284 34.1724 2.33309 -130.629 -72.0003 133.527
RightUpLeg  -37.4362 -7.29301 -9.2697
RightLeg  66.346 -5.78694 -14.8376
RightFoot  -28.9687 0.264063 2.97255
RightToes  -1.16417e-010 0 -3.6325e-017
Spine  16.3167 -2.84481 -3.08349
Spine1  -10.8847 -3.25824 3.54788
HEad  -26.0219 23.3301 -21.9264
LeftShoulder1  -0.0904579 5.08647 3.03079
LeftArm  -6.52661 5.4482 4.34307
LeftForeArm  32.4289 5.69639 -11.0871
LeftHand  0.125256 10.0161 4.48828
RightShoulder  0.949062 0.681028 15.9934
RightArm  7.63385 -57.4499 49.8286
RightForeArm  171.387 67.3771 156.661
RightHand  -1.85947 -17.3394 16.6847
LeftUpLeg  4.80711 6.33135 25.2399
LeftLeg  13.1279 3.16221 2.87802
LeftFoot  18.8114 8.48702 -31.2215
LeftToes  6.91183e-011 3.39355e-011 2.1261e-011
121
root  1.28762 34.3161 1.92593 -116.35 -76.8638 118.246
RightUpLeg  -34.8596 -7.9022 -6.81511
RightLeg  65.4788 -8.11306 -19.3501
RightFoot  -28.4224 0.46351 4.38022
RightToes  -1.16417e-010 0 -3.6325e-017
Spine  17.3171 -2.55181 -3.23455
Spine1  -10.7745 -3.31185 6.63386
HEad  -23.6128 18.4198 -19.9456
LeftShoulder1  0.026768 3.22113 0.636867
LeftArm  -10.6917 2.25208 -0.131164
LeftForeArm  33.4493 0.439758 -10.5726
LeftHand  0.264317 8.28079 11.8821
RightShoulder  1.21478 1.51816 17.6951
RightArm  -3.69437 -47.9139 57.7281
RightForeArm  -171.195 62.4834 162.833
RightHand  -4.14756 -19.1156 33.0639
LeftUpLeg  -2.60815 3.52457 24.914
LeftLeg  22.3172 9.00759 4.13873
LeftFoot  14.9981 5.19105 -22.1618
LeftToes  6.91183e-011 3.39355e-011 2.1261e-011
